<svg width="35" height="29" viewBox="0 0 35 29" fill="none" xmlns="http://www.w3.org/2000/svg">
<path fill-rule="evenodd" clip-rule="evenodd" d="M30 7.95C30 7.42533 29.4093 7 28.6806 7H6.31944C5.59074 7 5 7.42533 5 7.95V8.05C5 8.57467 5.59074 9 6.31944 9H28.6806C29.4093 9 30 8.57467 30 8.05V7.95ZM28.6806 14.5C29.4093 14.5 30 14.9253 30 15.45V15.55C30 16.0747 29.4093 16.5 28.6806 16.5H6.31944C5.59074 16.5 5 16.0747 5 15.55V15.45C5 14.9253 5.59074 14.5 6.31944 14.5H28.6806ZM28.6806 22C29.4093 22 30 22.4253 30 22.95V23.05C30 23.5747 29.4093 24 28.6806 24H6.31944C5.59074 24 5 23.5747 5 23.05V22.95C5 22.4253 5.59074 22 6.31944 22H28.6806Z" fill="#212337"/>
</svg>
