<svg width="20" height="20" viewBox="0 0 20 20" fill="" xmlns="http://www.w3.org/2000/svg">
<path d="M10.0026 18.334C10.9193 18.334 11.6693 17.584 11.6693 16.6673H8.33594C8.33594 17.584 9.08594 18.334 10.0026 18.334ZM15.0026 13.334V9.16732C15.0026 6.60898 13.6443 4.46732 11.2526 3.90065V3.33398C11.2526 2.64232 10.6943 2.08398 10.0026 2.08398C9.31094 2.08398 8.7526 2.64232 8.7526 3.33398V3.90065C6.36927 4.46732 5.0026 6.60065 5.0026 9.16732V13.334L3.33594 15.0007V15.834H16.6693V15.0007L15.0026 13.334ZM13.3359 14.1673H6.66927V9.16732C6.66927 7.10065 7.9276 5.41732 10.0026 5.41732C12.0776 5.41732 13.3359 7.10065 13.3359 9.16732V14.1673Z" fill=""/>
</svg>
