<svg width="16" height="16" viewBox="0 0 16 16" fill="none" xmlns="http://www.w3.org/2000/svg">
<g clip-path="url(#clip0_1923_2705)">
<path d="M11.759 10.1977C12.6667 8.95899 13.0733 7.42318 12.8974 5.89754C12.7214 4.37191 11.9759 2.96897 10.81 1.9694C9.64407 0.96983 8.14373 0.447345 6.60912 0.506476C5.07452 0.565607 3.61883 1.20199 2.53328 2.28832C1.44773 3.37464 0.812389 4.83079 0.754356 6.36544C0.696323 7.90008 1.21988 9.40005 2.22029 10.5653C3.22069 11.7305 4.62416 12.475 6.14992 12.6498C7.67568 12.8247 9.2112 12.417 10.4493 11.5083H10.4483C10.4765 11.5458 10.5065 11.5815 10.5402 11.6162L14.1496 15.2255C14.3254 15.4014 14.5638 15.5003 14.8125 15.5004C15.0612 15.5005 15.2998 15.4018 15.4757 15.226C15.6516 15.0502 15.7505 14.8117 15.7506 14.563C15.7507 14.3144 15.6519 14.0758 15.4762 13.8999L11.8668 10.2905C11.8333 10.2566 11.7972 10.2253 11.759 10.1968V10.1977ZM12.0008 6.59397C12.0008 7.27109 11.8675 7.94159 11.6083 8.56718C11.3492 9.19276 10.9694 9.76118 10.4906 10.24C10.0118 10.7188 9.44339 11.0986 8.8178 11.3577C8.19222 11.6168 7.52172 11.7502 6.84459 11.7502C6.16746 11.7502 5.49697 11.6168 4.87138 11.3577C4.2458 11.0986 3.67737 10.7188 3.19857 10.24C2.71977 9.76118 2.33996 9.19276 2.08084 8.56718C1.82171 7.94159 1.68834 7.27109 1.68834 6.59397C1.68834 5.22644 2.23159 3.91493 3.19857 2.94795C4.16556 1.98096 5.47707 1.43772 6.84459 1.43772C8.21211 1.43772 9.52363 1.98096 10.4906 2.94795C11.4576 3.91493 12.0008 5.22644 12.0008 6.59397Z" fill="#757575"/>
</g>
<defs>
<clipPath id="clip0_1923_2705">
<rect width="15" height="15" fill="white" transform="translate(0.75 0.5)"/>
</clipPath>
</defs>
</svg>
